<svg width="44.000000" height="50.000732" viewBox="0 0 44 50.0007" fill="none" xmlns="http://www.w3.org/2000/svg" xmlns:xlink="http://www.w3.org/1999/xlink">
	<desc>
			Created with Pixso.
	</desc>
	<defs>
		<linearGradient x1="12.685358" y1="18.726515" x2="53.475365" y2="59.653587" id="paint_linear_61_8_0" gradientUnits="userSpaceOnUse">
			<stop stop-color="#FFFFFF"/>
			<stop offset="1.000000" stop-color="#DFDFEC"/>
		</linearGradient>
		<linearGradient x1="40.827164" y1="8.860271" x2="1.487875" y2="48.331375" id="paint_linear_61_10_0" gradientUnits="userSpaceOnUse">
			<stop stop-color="#FFFFFF"/>
			<stop offset="0.317000" stop-color="#FCFCFC"/>
			<stop offset="0.512000" stop-color="#F4F4F4"/>
			<stop offset="0.674000" stop-color="#E6E6E6"/>
			<stop offset="0.817000" stop-color="#D1D1D1"/>
			<stop offset="0.948000" stop-color="#B7B7B7"/>
			<stop offset="1.000000" stop-color="#AAAAAA"/>
		</linearGradient>
		<linearGradient x1="-11.069954" y1="-11.133202" x2="46.447639" y2="57.106682" id="paint_linear_61_11_0" gradientUnits="userSpaceOnUse">
			<stop stop-color="#FFFFFF"/>
			<stop offset="0.517000" stop-color="#FF0000"/>
			<stop offset="1.000000" stop-color="#880000"/>
		</linearGradient>
	</defs>
	<path id="path" d="M43.51 49.51L0.48 49.51L0.48 6.33L43.51 6.33L43.51 49.51Z" fill="url(#paint_linear_61_8_0)" fill-opacity="1.000000" fill-rule="nonzero"/>
	<path id="path" d="M43.51 49.51L0.48 49.51L0.48 6.33L43.51 6.33L43.51 49.51Z" fill="#FF0000" fill-opacity="1.000000" fill-rule="nonzero"/>
	<path id="path" d="M41.43 47.42L2.56 47.42L2.56 8.43L41.43 8.43L41.43 47.42Z" fill="url(#paint_linear_61_10_0)" fill-opacity="1.000000" fill-rule="nonzero"/>
	<path id="path" d="M0.48 5.85C0.21 5.85 0 6.07 0 6.33L0 49.51C0 49.78 0.21 50 0.48 50L43.51 50C43.78 50 44 49.78 44 49.51L44 6.33C44 6.07 43.78 5.85 43.51 5.85L0.48 5.85ZM43.03 6.81L43.03 49.03C42.1 49.03 1.89 49.03 0.96 49.03C0.96 48.09 0.96 7.75 0.96 6.81L43.03 6.81Z" fill="url(#paint_linear_61_11_0)" fill-opacity="1.000000" fill-rule="nonzero"/>
	<g opacity="0.350000">
		<path id="path" d="M24.28 2.26C20.44 5.69 37.11 35.97 41.1 28.19C45.59 19.45 1.13 37.96 10.72 40.47C21.95 43.4 31.43 -4.13 24.28 2.26Z" fill="#000000" fill-opacity="0" fill-rule="nonzero"/>
		<g opacity="0.350000">
			<path id="path" d="M23.53 1.79C20.69 4.59 23.82 10.58 25.08 13.43C27.38 18.64 30.39 24.06 34.47 28.09C35.66 29.28 37.15 30.54 38.93 30.5C40.66 30.46 42.1 28.93 42.56 27.35C43.51 24.03 38.24 24.87 36.58 25.17C31.63 26.05 26.79 27.96 22.19 29.94C18 31.75 13.57 33.77 10.06 36.75C9.14 37.54 8.07 38.64 8.12 39.94C8.17 41.2 10 41.58 10.94 41.62C15.14 41.83 18.14 37.53 19.99 34.34C24.1 27.27 26.35 18.71 27.54 10.66C27.93 8.02 28.43 4.91 27.72 2.28C27.09 0 24.98 0.54 23.53 1.79C22.12 3 23.96 3.65 25.03 2.73C25.29 2.51 24.76 2.64 24.91 2.75C25.1 2.88 25.29 3.56 25.36 3.94C25.71 5.76 25.5 7.7 25.3 9.52C24.68 15.17 23.26 20.8 21.38 26.15C19.9 30.38 17.94 36.08 14.17 38.85C13.18 39.58 11.83 39.88 10.76 39.13C10.55 38.99 10.59 38.83 10.64 38.71C10.78 38.41 11.25 37.96 11.7 37.57C15.16 34.63 19.83 32.77 23.97 31.05C28.27 29.27 32.94 27.41 37.6 26.95C38.4 26.87 40.01 26.78 40.16 27.45C40.22 27.71 40.06 28.21 39.84 28.45C39.63 28.67 40.07 28.42 39.78 28.43C39.46 28.44 39.11 28.25 38.83 28.11C36.83 27.1 35.31 25.06 34 23.31C32.16 20.88 30.59 18.24 29.17 15.54C27.81 12.97 26.59 10.29 25.71 7.51C25.38 6.45 25.11 5.36 24.99 4.26C24.95 3.9 24.94 3.54 24.98 3.18C25 2.95 25.24 2.52 25.03 2.73C26.34 1.43 24.55 0.78 23.53 1.79Z" fill="#000000" fill-opacity="1.000000" fill-rule="nonzero"/>
		</g>
	</g>
	<path id="path" d="M22.75 1.55C18.91 4.97 35.58 35.25 39.57 27.48C44.06 18.73 -0.4 37.25 9.19 39.75C20.42 42.69 29.91 -4.85 22.75 1.55Z" fill="#000000" fill-opacity="0" fill-rule="nonzero"/>
	<path id="path" d="M22 1.07C19.17 3.87 22.29 9.87 23.55 12.72C25.85 17.93 28.86 23.34 32.94 27.38C34.14 28.56 35.62 29.82 37.4 29.78C39.13 29.74 40.57 28.22 41.03 26.64C41.99 23.32 36.71 24.16 35.05 24.45C30.1 25.34 25.26 27.25 20.66 29.23C16.47 31.03 12.04 33.05 8.54 36.04C7.62 36.82 6.54 37.93 6.59 39.23C6.64 40.49 8.47 40.86 9.42 40.91C13.61 41.12 16.61 36.82 18.46 33.63C22.57 26.55 24.82 17.99 26.01 9.95C26.4 7.31 26.91 4.19 26.19 1.56C25.57 -0.71 23.45 -0.18 22 1.07C20.6 2.29 22.43 2.94 23.5 2.02C23.76 1.79 23.23 1.93 23.38 2.04C23.57 2.17 23.76 2.85 23.83 3.23C24.18 5.05 23.97 6.99 23.77 8.81C23.16 14.45 21.73 20.09 19.85 25.44C18.37 29.67 16.41 35.36 12.64 38.14C11.66 38.86 10.3 39.17 9.23 38.42C9.03 38.27 9.06 38.12 9.12 38C9.25 37.7 9.73 37.24 10.17 36.86C13.63 33.91 18.3 32.06 22.45 30.34C26.74 28.55 31.41 26.69 36.08 26.23C36.87 26.15 38.48 26.07 38.63 26.74C38.69 26.99 38.53 27.5 38.31 27.74C38.11 27.96 38.54 27.71 38.25 27.72C37.93 27.72 37.58 27.54 37.3 27.4C35.31 26.38 33.79 24.34 32.47 22.6C30.63 20.16 29.06 17.52 27.64 14.83C26.28 12.26 25.06 9.58 24.18 6.8C23.85 5.74 23.58 4.65 23.46 3.55C23.42 3.19 23.41 2.83 23.45 2.47C23.47 2.23 23.71 1.81 23.5 2.02C24.82 0.72 23.02 0.07 22 1.07Z" fill="#FF0000" fill-opacity="1.000000" fill-rule="nonzero"/>
</svg>
