<svg width="50.000000" height="50.000000" viewBox="0 0 50 50" fill="none" xmlns="http://www.w3.org/2000/svg" xmlns:xlink="http://www.w3.org/1999/xlink">
	<desc>
			Created with Pixso.
	</desc>
	<defs/>
	<path id="path" d="M32.92 2.64L32.92 44.69C32.92 46.15 31.74 47.34 30.28 47.34L19.73 47.34C18.28 47.34 17.1 46.15 17.1 44.69L17.1 2.64C17.1 1.18 18.28 0 19.73 0L30.28 0C31.74 0 32.92 1.18 32.92 2.64Z" fill="#F14F4A" fill-opacity="1.000000" fill-rule="nonzero"/>
	<path id="path" d="M19.73 7.43L19.73 21.19C19.73 21.67 20.13 22.07 20.61 22.07L29.4 22.07C29.89 22.07 30.28 21.67 30.28 21.19L30.28 7.43C30.28 6.94 29.89 6.55 29.4 6.55L20.61 6.55C20.13 6.55 19.73 6.94 19.73 7.43Z" fill="#FFFFFF" fill-opacity="1.000000" fill-rule="nonzero"/>
	<path id="path" d="M29.15 39.27C29.15 41.57 27.3 43.42 25.01 43.42C22.72 43.42 20.87 41.57 20.87 39.27C20.87 36.97 22.72 35.12 25.01 35.12C27.3 35.12 29.15 36.97 29.15 39.27Z" fill="#342C37" fill-opacity="1.000000" fill-rule="nonzero"/>
	<path id="path" d="M27.21 39.27C27.21 40.49 26.22 41.47 25.01 41.47C23.79 41.47 22.81 40.49 22.81 39.27C22.81 38.05 23.79 37.07 25.01 37.07C26.22 37.07 27.21 38.05 27.21 39.27Z" fill="#FFFFFF" fill-opacity="1.000000" fill-rule="nonzero"/>
	<path id="path" d="M28.86 10.06C28.86 10.41 28.57 10.7 28.21 10.7L21.8 10.7C21.45 10.7 21.16 10.41 21.16 10.06C21.16 9.7 21.45 9.41 21.8 9.41L28.21 9.41C28.57 9.41 28.86 9.7 28.86 10.06Z" fill="#342C37" fill-opacity="1.000000" fill-rule="nonzero"/>
	<path id="path" d="M28.86 12.89C28.86 13.25 28.57 13.53 28.21 13.53L21.8 13.53C21.45 13.53 21.16 13.25 21.16 12.89C21.16 12.53 21.45 12.25 21.8 12.25L28.21 12.25C28.57 12.25 28.86 12.53 28.86 12.89Z" fill="#342C37" fill-opacity="1.000000" fill-rule="nonzero"/>
	<path id="path" d="M28.86 15.73C28.86 16.08 28.57 16.37 28.21 16.37L21.8 16.37C21.45 16.37 21.16 16.08 21.16 15.73C21.16 15.37 21.45 15.08 21.8 15.08L28.21 15.08C28.57 15.08 28.86 15.37 28.86 15.73Z" fill="#342C37" fill-opacity="1.000000" fill-rule="nonzero"/>
	<path id="path" d="M26.2 18.56C26.2 18.92 25.9 19.2 25.55 19.2L21.8 19.2C21.45 19.2 21.16 18.92 21.16 18.56C21.16 18.2 21.45 17.92 21.8 17.92L25.55 17.92C25.9 17.92 26.2 18.2 26.2 18.56Z" fill="#342C37" fill-opacity="1.000000" fill-rule="nonzero"/>
	<path id="path" d="M48.75 2.64L48.75 44.69C48.75 46.15 47.56 47.34 46.11 47.34L35.56 47.34C34.1 47.34 32.92 46.15 32.92 44.69L32.92 2.64C32.92 1.18 34.1 0 35.56 0L46.11 0C47.56 0 48.75 1.18 48.75 2.64Z" fill="#9CE843" fill-opacity="1.000000" fill-rule="nonzero"/>
	<path id="path" d="M35.56 7.43L35.56 21.19C35.56 21.67 35.95 22.07 36.44 22.07L45.23 22.07C45.71 22.07 46.11 21.67 46.11 21.19L46.11 7.43C46.11 6.94 45.71 6.55 45.23 6.55L36.44 6.55C35.95 6.55 35.56 6.94 35.56 7.43Z" fill="#FFFFFF" fill-opacity="1.000000" fill-rule="nonzero"/>
	<path id="path" d="M44.98 39.27C44.98 41.57 43.12 43.42 40.83 43.42C38.55 43.42 36.69 41.57 36.69 39.27C36.69 36.97 38.55 35.12 40.83 35.12C43.12 35.12 44.98 36.97 44.98 39.27Z" fill="#342C37" fill-opacity="1.000000" fill-rule="nonzero"/>
	<path id="path" d="M43.03 39.27C43.03 40.49 42.05 41.47 40.83 41.47C39.62 41.47 38.63 40.49 38.63 39.27C38.63 38.05 39.62 37.07 40.83 37.07C42.05 37.07 43.03 38.05 43.03 39.27Z" fill="#FFFFFF" fill-opacity="1.000000" fill-rule="nonzero"/>
	<path id="path" d="M44.68 10.06C44.68 10.41 44.39 10.7 44.04 10.7L37.63 10.7C37.28 10.7 36.98 10.41 36.98 10.06C36.98 9.7 37.28 9.41 37.63 9.41L44.04 9.41C44.39 9.41 44.68 9.7 44.68 10.06Z" fill="#342C37" fill-opacity="1.000000" fill-rule="nonzero"/>
	<path id="path" d="M44.68 12.89C44.68 13.25 44.39 13.53 44.04 13.53L37.63 13.53C37.28 13.53 36.98 13.25 36.98 12.89C36.98 12.53 37.28 12.25 37.63 12.25L44.04 12.25C44.39 12.25 44.68 12.53 44.68 12.89Z" fill="#342C37" fill-opacity="1.000000" fill-rule="nonzero"/>
	<path id="path" d="M44.68 15.73C44.68 16.08 44.39 16.37 44.04 16.37L37.63 16.37C37.28 16.37 36.98 16.08 36.98 15.73C36.98 15.37 37.28 15.08 37.63 15.08L44.04 15.08C44.39 15.08 44.68 15.37 44.68 15.73Z" fill="#342C37" fill-opacity="1.000000" fill-rule="nonzero"/>
	<path id="path" d="M42.02 18.56C42.02 18.92 41.73 19.2 41.38 19.2L37.63 19.2C37.28 19.2 36.98 18.92 36.98 18.56C36.98 18.2 37.28 17.92 37.63 17.92L41.38 17.92C41.73 17.92 42.02 18.2 42.02 18.56Z" fill="#342C37" fill-opacity="1.000000" fill-rule="nonzero"/>
	<path id="path" d="M17.07 2.64L17.07 44.69C17.07 46.15 15.89 47.34 14.43 47.34L3.88 47.34C2.43 47.34 1.24 46.15 1.24 44.69L1.24 2.64C1.24 1.18 2.43 0 3.88 0L14.43 0C15.89 0 17.07 1.18 17.07 2.64Z" fill="#8DD1FE" fill-opacity="1.000000" fill-rule="nonzero"/>
	<path id="path" d="M3.88 7.43L3.88 21.19C3.88 21.67 4.28 22.07 4.76 22.07L13.55 22.07C14.04 22.07 14.43 21.67 14.43 21.19L14.43 7.43C14.43 6.94 14.04 6.55 13.55 6.55L4.76 6.55C4.28 6.55 3.88 6.94 3.88 7.43Z" fill="#FFFFFF" fill-opacity="1.000000" fill-rule="nonzero"/>
	<path id="path" d="M13.3 39.27C13.3 41.57 11.44 43.42 9.16 43.42C6.87 43.42 5.01 41.57 5.01 39.27C5.01 36.97 6.87 35.12 9.16 35.12C11.44 35.12 13.3 36.97 13.3 39.27Z" fill="#342C37" fill-opacity="1.000000" fill-rule="nonzero"/>
	<path id="path" d="M11.36 39.27C11.36 40.49 10.37 41.47 9.16 41.47C7.94 41.47 6.96 40.49 6.96 39.27C6.96 38.05 7.94 37.07 9.16 37.07C10.37 37.07 11.36 38.05 11.36 39.27Z" fill="#FFFFFF" fill-opacity="1.000000" fill-rule="nonzero"/>
	<path id="path" d="M13.01 10.06C13.01 10.41 12.71 10.7 12.36 10.7L5.95 10.7C5.6 10.7 5.31 10.41 5.31 10.06C5.31 9.7 5.6 9.41 5.95 9.41L12.36 9.41C12.71 9.41 13.01 9.7 13.01 10.06Z" fill="#342C37" fill-opacity="1.000000" fill-rule="nonzero"/>
	<path id="path" d="M13.01 12.89C13.01 13.25 12.71 13.53 12.36 13.53L5.95 13.53C5.6 13.53 5.31 13.25 5.31 12.89C5.31 12.53 5.6 12.25 5.95 12.25L12.36 12.25C12.71 12.25 13.01 12.53 13.01 12.89Z" fill="#342C37" fill-opacity="1.000000" fill-rule="nonzero"/>
	<path id="path" d="M13.01 15.73C13.01 16.08 12.71 16.37 12.36 16.37L5.95 16.37C5.6 16.37 5.31 16.08 5.31 15.73C5.31 15.37 5.6 15.08 5.95 15.08L12.36 15.08C12.71 15.08 13.01 15.37 13.01 15.73Z" fill="#342C37" fill-opacity="1.000000" fill-rule="nonzero"/>
	<path id="path" d="M10.34 18.56C10.34 18.92 10.05 19.2 9.7 19.2L5.95 19.2C5.6 19.2 5.31 18.92 5.31 18.56C5.31 18.2 5.6 17.92 5.95 17.92L9.7 17.92C10.05 17.92 10.34 18.2 10.34 18.56Z" fill="#342C37" fill-opacity="1.000000" fill-rule="nonzero"/>
	<path id="path" d="M50 27.72L50 47.65C50 48.94 48.95 50 47.65 50L2.34 50C1.04 50 0 48.94 0 47.65L0 27.72C0 26.86 0.69 26.16 1.56 26.16L11.86 26.16C12.73 26.16 13.42 26.86 13.42 27.72L13.42 31.44C13.42 32.31 14.12 33.01 14.99 33.01L35 33.01C35.87 33.01 36.57 32.31 36.57 31.44L36.57 27.72C36.57 26.86 37.26 26.16 38.13 26.16L48.43 26.16C49.3 26.16 50 26.86 50 27.72Z" fill="#FFC90D" fill-opacity="1.000000" fill-rule="nonzero"/>
	<path id="path" d="M35.15 41.59C35.15 42.29 34.58 42.86 33.88 42.86L16.11 42.86C15.41 42.86 14.84 42.29 14.84 41.59C14.84 40.89 15.41 40.33 16.11 40.33L33.88 40.33C34.58 40.33 35.15 40.89 35.15 41.59Z" fill="#342C37" fill-opacity="1.000000" fill-rule="nonzero"/>
</svg>
