<svg width="50.000000" height="50.000000" viewBox="0 0 50 50" fill="none" xmlns="http://www.w3.org/2000/svg" xmlns:xlink="http://www.w3.org/1999/xlink">
	<desc>
			Created with Pixso.
	</desc>
	<defs/>
	<g opacity="0.000000">
		<rect id="Прямоугольник 1" width="50.000000" height="50.000000" fill="#C4C4C4" fill-opacity="1.000000"/>
	</g>
	<path id="path" d="M0.89 10.12L49.1 10.12L49.1 45.12L0.89 45.12L0.89 10.12Z" fill="#C5E4FA" fill-opacity="1.000000" fill-rule="nonzero"/>
	<path id="path" d="M30.45 45.12L49.1 26.84L49.1 11L46.61 11L11.79 45.12L30.45 45.12ZM1.15 45.12L8.6 45.12L43.42 11L35.97 11L1.15 45.12ZM0.89 42.24L32.77 11L29.24 11L0.89 38.78L0.89 42.24Z" fill="#E3F2FF" fill-opacity="1.000000" fill-rule="nonzero"/>
	<rect id="rect" x="0.892822" y="4.875000" rx="2.000000" width="48.214287" height="8.750000" fill="#ACB7D0" fill-opacity="1.000000"/>
	<path id="path" d="M8.03 27.62L22.32 27.62L22.32 38.12L8.03 38.12L8.03 27.62Z" fill="#F9E3AE" fill-opacity="1.000000" fill-rule="nonzero"/>
	<path id="path" d="M8.03 18.87L41.96 18.87L41.96 22.37L8.03 22.37L8.03 18.87Z" fill="#72CAAF" fill-opacity="1.000000" fill-rule="nonzero"/>
	<path id="path" d="M8.03 18.87L27.67 18.87L27.67 22.37L8.03 22.37L8.03 18.87Z" fill="#EB9697" fill-opacity="1.000000" fill-rule="nonzero"/>
	<path id="path" d="M45.53 12.75L41.96 12.75C41.36 12.75 41.07 13.04 41.07 13.62C41.07 14.2 41.36 14.5 41.96 14.5L45.53 14.5C46.13 14.5 46.42 14.2 46.42 13.62C46.42 13.04 46.13 12.75 45.53 12.75Z" fill="#8D6C9F" fill-opacity="1.000000" fill-rule="nonzero"/>
	<path id="path" d="M47.32 4L2.67 4C1.93 4 1.3 4.25 0.78 4.76C0.26 5.28 0 5.9 0 6.62L0 43.37C0 44.09 0.26 44.71 0.78 45.23C1.3 45.74 1.93 46 2.67 46L47.32 46C48.06 46 48.69 45.74 49.21 45.23C49.73 44.71 50 44.09 50 43.37L50 6.62C50 5.9 49.73 5.28 49.21 4.76C48.69 4.25 48.06 4 47.32 4ZM48.21 43.37C48.21 43.95 47.91 44.25 47.32 44.25L2.67 44.25C2.08 44.25 1.78 43.95 1.78 43.37L1.78 14.5L38.39 14.5C38.98 14.5 39.28 14.2 39.28 13.62C39.28 13.04 38.98 12.75 38.39 12.75L1.78 12.75L1.78 6.62C1.78 6.04 2.08 5.75 2.67 5.75L47.32 5.75C47.91 5.75 48.21 6.04 48.21 6.62L48.21 43.37Z" fill="#8D6C9F" fill-opacity="1.000000" fill-rule="nonzero"/>
	<path id="path" d="M14.28 7.5C13.69 7.5 13.39 7.79 13.39 8.37L13.39 10.12C13.39 10.7 13.69 11 14.28 11C14.88 11 15.17 10.7 15.17 10.12L15.17 8.37C15.17 7.79 14.88 7.5 14.28 7.5ZM9.82 7.5C9.22 7.5 8.92 7.79 8.92 8.37L8.92 10.12C8.92 10.7 9.22 11 9.82 11C10.41 11 10.71 10.7 10.71 10.12L10.71 8.37C10.71 7.79 10.41 7.5 9.82 7.5ZM5.35 7.5C4.76 7.5 4.46 7.79 4.46 8.37L4.46 10.12C4.46 10.7 4.76 11 5.35 11C5.95 11 6.25 10.7 6.25 10.12L6.25 8.37C6.25 7.79 5.95 7.5 5.35 7.5ZM27.67 7.5C27.08 7.5 26.78 7.79 26.78 8.37L26.78 10.12C26.78 10.7 27.08 11 27.67 11C28.27 11 28.57 10.7 28.57 10.12L28.57 8.37C28.57 7.79 28.27 7.5 27.67 7.5ZM27.67 18.87C27.08 18.87 26.78 19.16 26.78 19.75L26.78 21.5C26.78 22.08 27.08 22.37 27.67 22.37C28.27 22.37 28.57 22.08 28.57 21.5L28.57 19.75C28.57 19.16 28.27 18.87 27.67 18.87ZM32.14 7.5C31.54 7.5 31.25 7.79 31.25 8.37L31.25 10.12C31.25 10.7 31.54 11 32.14 11C32.73 11 33.03 10.7 33.03 10.12L33.03 8.37C33.03 7.79 32.73 7.5 32.14 7.5ZM36.6 7.5C36.01 7.5 35.71 7.79 35.71 8.37L35.71 10.12C35.71 10.7 36.01 11 36.6 11C37.2 11 37.5 10.7 37.5 10.12L37.5 8.37C37.5 7.79 37.2 7.5 36.6 7.5ZM41.07 11C41.66 11 41.96 10.7 41.96 10.12L41.96 8.37C41.96 7.79 41.66 7.5 41.07 7.5C40.47 7.5 40.17 7.79 40.17 8.37L40.17 10.12C40.17 10.7 40.47 11 41.07 11ZM45.53 7.5C44.94 7.5 44.64 7.79 44.64 8.37L44.64 10.12C44.64 10.7 44.94 11 45.53 11C46.13 11 46.42 10.7 46.42 10.12L46.42 8.37C46.42 7.79 46.13 7.5 45.53 7.5ZM18.75 7.5C18.15 7.5 17.85 7.79 17.85 8.37L17.85 10.12C17.85 10.7 18.15 11 18.75 11C19.34 11 19.64 10.7 19.64 10.12L19.64 8.37C19.64 7.79 19.34 7.5 18.75 7.5ZM23.21 7.5C22.61 7.5 22.32 7.79 22.32 8.37L22.32 10.12C22.32 10.7 22.61 11 23.21 11C23.8 11 24.1 10.7 24.1 10.12L24.1 8.37C24.1 7.79 23.8 7.5 23.21 7.5Z" fill="#8D6C9F" fill-opacity="1.000000" fill-rule="nonzero"/>
	<path id="path" d="M41.96 18L8.03 18C7.44 18 7.14 18.29 7.14 18.87L7.14 22.37C7.14 22.95 7.44 23.25 8.03 23.25L41.96 23.25C42.55 23.25 42.85 22.95 42.85 22.37L42.85 18.87C42.85 18.29 42.55 18 41.96 18ZM41.07 21.5L8.92 21.5L8.92 19.75L41.07 19.75L41.07 21.5ZM22.32 26.75L8.03 26.75C7.44 26.75 7.14 27.04 7.14 27.62L7.14 38.12C7.14 38.7 7.44 39 8.03 39L22.32 39C22.91 39 23.21 38.7 23.21 38.12L23.21 27.62C23.21 27.04 22.91 26.75 22.32 26.75ZM21.42 37.25L8.92 37.25L8.92 28.5L21.42 28.5L21.42 37.25ZM40.17 32C40.77 32 41.07 31.7 41.07 31.12C41.07 30.54 40.77 30.25 40.17 30.25L38.39 30.25C37.79 30.25 37.5 30.54 37.5 31.12C37.5 31.7 37.79 32 38.39 32L40.17 32ZM27.67 32L34.82 32C35.41 32 35.71 31.7 35.71 31.12C35.71 30.54 35.41 30.25 34.82 30.25L27.67 30.25C27.08 30.25 26.78 30.54 26.78 31.12C26.78 31.7 27.08 32 27.67 32ZM33.03 37.25L27.67 37.25C27.08 37.25 26.78 37.54 26.78 38.12C26.78 38.7 27.08 39 27.67 39L33.03 39C33.63 39 33.92 38.7 33.92 38.12C33.92 37.54 33.63 37.25 33.03 37.25ZM41.96 26.75L27.67 26.75C27.08 26.75 26.78 27.04 26.78 27.62C26.78 28.2 27.08 28.5 27.67 28.5L41.96 28.5C42.55 28.5 42.85 28.2 42.85 27.62C42.85 27.04 42.55 26.75 41.96 26.75ZM41.96 33.75L27.67 33.75C27.08 33.75 26.78 34.04 26.78 34.62C26.78 35.2 27.08 35.5 27.67 35.5L41.96 35.5C42.55 35.5 42.85 35.2 42.85 34.62C42.85 34.04 42.55 33.75 41.96 33.75Z" fill="#8D6C9F" fill-opacity="1.000000" fill-rule="nonzero"/>
</svg>
